REM DIRINDEX 1\2\4,1\2\5,1\2\6,1\3\7,1\3\8
REM DIRNAME cjc128,folder01,folder02,folder03,folder04,folder05,folder06,folder07
TITLE ""
FILE "035_Communication Stage 5.mp3" MP3
  TRACK 01 AUDIO
    TITLE "0:"
    INDEX 01 00:00:00
  TRACK 02 AUDIO
    TITLE "6:cjc128_2147"
    INDEX 01 00:00:09
  TRACK 03 AUDIO
    TITLE "0:"
    INDEX 01 00:02:53
  TRACK 04 AUDIO
    TITLE "6:cjc128_2148"
    INDEX 01 00:03:08
  TRACK 05 AUDIO
    TITLE "0:"
    INDEX 01 00:05:07
  TRACK 06 AUDIO
    TITLE "4:cjc128_2149"
    INDEX 01 00:05:56
  TRACK 07 AUDIO
    TITLE "0:"
    INDEX 01 00:08:21
  TRACK 08 AUDIO
    TITLE "5:cjc128_2150"
    INDEX 01 00:11:39
  TRACK 09 AUDIO
    TITLE "0:"
    INDEX 01 00:14:07
  TRACK 10 AUDIO
    TITLE "6:cjc128_2151"
    INDEX 01 00:14:62
  TRACK 11 AUDIO
    TITLE "0:"
    INDEX 01 00:16:59
  TRACK 12 AUDIO
    TITLE "4:cjc128_2152"
    INDEX 01 00:17:47
  TRACK 13 AUDIO
    TITLE "0:"
    INDEX 01 00:20:32
  TRACK 14 AUDIO
    TITLE "5:cjc128_2153"
    INDEX 01 00:24:06
  TRACK 15 AUDIO
    TITLE "0:"
    INDEX 01 00:27:14
  TRACK 16 AUDIO
    TITLE "6:cjc128_2154"
    INDEX 01 00:27:71
  TRACK 17 AUDIO
    TITLE "0:"
    INDEX 01 00:29:66
  TRACK 18 AUDIO
    TITLE "4:cjc128_2155"
    INDEX 01 00:30:44
  TRACK 19 AUDIO
    TITLE "0:"
    INDEX 01 00:33:01
  TRACK 20 AUDIO
    TITLE "5:cjc128_2156"
    INDEX 01 00:36:13
  TRACK 21 AUDIO
    TITLE "0:"
    INDEX 01 00:38:57
  TRACK 22 AUDIO
    TITLE "6:cjc128_2157"
    INDEX 01 00:39:33
  TRACK 23 AUDIO
    TITLE "0:"
    INDEX 01 00:41:20
  TRACK 24 AUDIO
    TITLE "4:cjc128_2158"
    INDEX 01 00:42:00
  TRACK 25 AUDIO
    TITLE "0:"
    INDEX 01 00:43:19
  TRACK 26 AUDIO
    TITLE "5:cjc128_2159"
    INDEX 01 00:45:24
  TRACK 27 AUDIO
    TITLE "0:"
    INDEX 01 00:46:56
  TRACK 28 AUDIO
    TITLE "6:cjc128_2160"
    INDEX 01 00:47:38
  TRACK 29 AUDIO
    TITLE "0:"
    INDEX 01 00:49:35
  TRACK 30 AUDIO
    TITLE "4:cjc128_2161"
    INDEX 01 00:50:09
  TRACK 31 AUDIO
    TITLE "0:"
    INDEX 01 00:53:29
  TRACK 32 AUDIO
    TITLE "5:cjc128_2162"
    INDEX 01 00:56:43
  TRACK 33 AUDIO
    TITLE "0:"
    INDEX 01 00:59:24
  TRACK 34 AUDIO
    TITLE "6:cjc128_2163"
    INDEX 01 00:59:71
  TRACK 35 AUDIO
    TITLE "0:"
    INDEX 01 01:01:50
  TRACK 36 AUDIO
    TITLE "4:cjc128_2164"
    INDEX 01 01:02:24
  TRACK 37 AUDIO
    TITLE "0:"
    INDEX 01 01:05:24
  TRACK 38 AUDIO
    TITLE "5:cjc128_2165"
    INDEX 01 01:09:14
  TRACK 39 AUDIO
    TITLE "0:"
    INDEX 01 01:12:40
  TRACK 40 AUDIO
    TITLE "6:cjc128_2166"
    INDEX 01 01:13:16
  TRACK 41 AUDIO
    TITLE "0:"
    INDEX 01 01:15:01
  TRACK 42 AUDIO
    TITLE "4:cjc128_2167"
    INDEX 01 01:15:54
  TRACK 43 AUDIO
    TITLE "0:"
    INDEX 01 01:19:66
  TRACK 44 AUDIO
    TITLE "5:cjc128_2168"
    INDEX 01 01:24:14
  TRACK 45 AUDIO
    TITLE "0:"
    INDEX 01 01:28:02
  TRACK 46 AUDIO
    TITLE "6:cjc128_2169"
    INDEX 01 01:28:61
  TRACK 47 AUDIO
    TITLE "0:"
    INDEX 01 01:30:46
  TRACK 48 AUDIO
    TITLE "4:cjc128_2170"
    INDEX 01 01:31:22
  TRACK 49 AUDIO
    TITLE "0:"
    INDEX 01 01:34:10
  TRACK 50 AUDIO
    TITLE "5:cjc128_2171"
    INDEX 01 01:37:05
  TRACK 51 AUDIO
    TITLE "0:"
    INDEX 01 01:39:35
  TRACK 52 AUDIO
    TITLE "6:cjc128_2172"
    INDEX 01 01:40:03
  TRACK 53 AUDIO
    TITLE "0:"
    INDEX 01 01:42:02
  TRACK 54 AUDIO
    TITLE "4:cjc128_2173"
    INDEX 01 01:42:57
  TRACK 55 AUDIO
    TITLE "0:"
    INDEX 01 01:44:38
  TRACK 56 AUDIO
    TITLE "5:cjc128_2174"
    INDEX 01 01:46:61
  TRACK 57 AUDIO
    TITLE "0:"
    INDEX 01 01:48:46
  TRACK 58 AUDIO
    TITLE "6:cjc128_2175"
    INDEX 01 01:49:24
  TRACK 59 AUDIO
    TITLE "0:"
    INDEX 01 01:51:25
  TRACK 60 AUDIO
    TITLE "4:cjc128_2176"
    INDEX 01 01:51:72
  TRACK 61 AUDIO
    TITLE "0:"
    INDEX 01 01:55:16
  TRACK 62 AUDIO
    TITLE "5:cjc128_2177"
    INDEX 01 01:58:48
  TRACK 63 AUDIO
    TITLE "0:"
    INDEX 01 02:01:35
  TRACK 64 AUDIO
    TITLE "6:cjc128_2178"
    INDEX 01 02:02:13
  TRACK 65 AUDIO
    TITLE "0:"
    INDEX 01 02:04:12
  TRACK 66 AUDIO
    TITLE "4:cjc128_2179"
    INDEX 01 02:04:62
  TRACK 67 AUDIO
    TITLE "0:"
    INDEX 01 02:07:67
  TRACK 68 AUDIO
    TITLE "5:cjc128_2180"
    INDEX 01 02:11:61
  TRACK 69 AUDIO
    TITLE "0:"
    INDEX 01 02:15:15
  TRACK 70 AUDIO
    TITLE "6:cjc128_2181"
    INDEX 01 02:15:62
  TRACK 71 AUDIO
    TITLE "0:"
    INDEX 01 02:17:59
  TRACK 72 AUDIO
    TITLE "4:cjc128_2182"
    INDEX 01 02:18:31
  TRACK 73 AUDIO
    TITLE "0:"
    INDEX 01 02:22:56
  TRACK 74 AUDIO
    TITLE "5:cjc128_2183"
    INDEX 01 02:28:26
  TRACK 75 AUDIO
    TITLE "0:"
    INDEX 01 02:33:17
  TRACK 76 AUDIO
    TITLE "6:cjc128_2184"
    INDEX 01 02:34:09
  TRACK 77 AUDIO
    TITLE "0:"
    INDEX 01 02:36:17
  TRACK 78 AUDIO
    TITLE "4:cjc128_2185"
    INDEX 01 02:36:60
  TRACK 79 AUDIO
    TITLE "0:"
    INDEX 01 02:39:63
  TRACK 80 AUDIO
    TITLE "5:cjc128_2186"
    INDEX 01 02:43:10
  TRACK 81 AUDIO
    TITLE "0:"
    INDEX 01 02:45:63
  TRACK 82 AUDIO
    TITLE "6:cjc128_2187"
    INDEX 01 02:46:41
  TRACK 83 AUDIO
    TITLE "0:"
    INDEX 01 02:48:44
  TRACK 84 AUDIO
    TITLE "4:cjc128_2188"
    INDEX 01 02:49:24
  TRACK 85 AUDIO
    TITLE "0:"
    INDEX 01 02:53:49
  TRACK 86 AUDIO
    TITLE "5:cjc128_2189"
    INDEX 01 02:57:47
  TRACK 87 AUDIO
    TITLE "0:"
    INDEX 01 03:01:13
